<svg width="132" height="38" viewBox="0 0 132 38" fill="none" xmlns="http://www.w3.org/2000/svg">
<path d="M55.4964 14.2007H51.1745V35.9998H46.2353V14.2007H42.6734V9.68889H46.2353V0.855285H51.1745V9.68889H55.4964V14.2007ZM84.3881 22.5119C84.3881 23.3351 84.3406 24.1583 84.2457 24.9815H62.4466C62.9532 27.0712 63.9822 28.7967 65.5336 30.1582C67.1167 31.488 68.9689 32.1529 71.0902 32.1529C72.6416 32.1529 74.0981 31.7571 75.4595 30.9655C76.8527 30.174 77.8975 29.0975 78.594 27.7361H83.5333C82.5201 30.4273 80.8737 32.5961 78.594 34.2425C76.3144 35.8573 73.7498 36.6647 70.9003 36.6647C67.1958 36.6647 64.0297 35.2874 61.4018 32.5328C58.8055 29.7782 57.5074 26.5329 57.5074 22.7968C57.5074 18.9658 58.8055 15.7046 61.4018 13.0134C63.998 10.3221 67.1958 8.97651 70.9952 8.97651C74.6997 8.97651 77.85 10.3063 80.4463 12.9659C83.0742 15.6255 84.3881 18.8075 84.3881 22.5119ZM79.4489 21.1821C79.3223 19.0291 78.4041 17.2085 76.6943 15.7204C75.0163 14.2323 73.1007 13.4883 70.9477 13.4883C68.7948 13.4883 66.8634 14.2323 65.1537 15.7204C63.4756 17.2085 62.5732 19.0291 62.4466 21.1821H79.4489ZM100.707 14.0582C99.4718 14.0582 98.2845 14.3748 97.1447 15.0081C95.2133 15.9896 94.2477 18.1901 94.2477 21.6095V35.9998H89.3084V9.68889H93.9152V12.0635H94.0102C95.4033 10.1005 97.6355 9.07149 100.707 8.97651V14.0582ZM129.701 22.5119C129.701 23.3351 129.653 24.1583 129.558 24.9815H107.759C108.266 27.0712 109.295 28.7967 110.846 30.1582C112.429 31.488 114.282 32.1529 116.403 32.1529C117.954 32.1529 119.411 31.7571 120.772 30.9655C122.165 30.174 123.21 29.0975 123.907 27.7361H128.846C127.833 30.4273 126.186 32.5961 123.907 34.2425C121.627 35.8573 119.063 36.6647 116.213 36.6647C112.509 36.6647 109.342 35.2874 106.714 32.5328C104.118 29.7782 102.82 26.5329 102.82 22.7968C102.82 18.9658 104.118 15.7046 106.714 13.0134C109.311 10.3221 112.509 8.97651 116.308 8.97651C120.012 8.97651 123.163 10.3063 125.759 12.9659C128.387 15.6255 129.701 18.8075 129.701 22.5119ZM124.762 21.1821C124.635 19.0291 123.717 17.2085 122.007 15.7204C120.329 14.2323 118.413 13.4883 116.26 13.4883C114.107 13.4883 112.176 14.2323 110.466 15.7204C108.788 17.2085 107.886 19.0291 107.759 21.1821H124.762Z" fill="black"/>
<path d="M2.46582 11.8584L5.87109 15.2822L5.93652 15.3477L5.91309 15.4365C5.62851 16.5215 5.48537 17.6608 5.48535 18.8369C5.48535 26.3521 11.5944 32.4609 19.1279 32.4609C26.6431 32.4608 32.752 26.3521 32.752 18.8369C32.7519 17.6792 32.6089 16.5579 32.3242 15.4727L32.3008 15.3828L32.3662 15.3184L35.7715 11.8945L35.9424 11.7227L36.0352 11.9463C36.908 14.0739 37.3799 16.4014 37.3799 18.8369C37.3799 28.9086 29.1811 37.1074 19.1094 37.1074C9.03777 37.1073 0.838867 28.9085 0.838867 18.8369C0.838899 16.3826 1.32982 14.0556 2.20215 11.9111L2.29395 11.6855L2.46582 11.8584ZM19.1094 0.566406C25.1272 0.566406 30.4723 3.49363 33.7988 7.9834L33.8809 8.09473L33.7832 8.19336L30.5449 11.4316L30.4365 11.2686C28.4349 8.28336 25.2801 6.11747 21.6045 5.43457L21.2471 5.37305C20.5529 5.26627 19.8401 5.21289 19.1094 5.21289C18.3786 5.2129 17.6659 5.26527 16.9717 5.37207L16.9727 5.37305C13.1621 5.97847 9.86685 8.16887 7.80078 11.25L7.69141 11.4131L7.55371 11.2744L4.4541 8.17578L4.35547 8.07715L4.43848 7.96582C7.76507 3.47583 13.1099 0.566483 19.1094 0.566406Z" fill="black" stroke="black" stroke-width="0.321949"/>
<path d="M21.4387 19.4276H16.7922L16.7922 2.32898L21.4387 2.32898L21.4387 19.4276Z" fill="black" stroke="black" stroke-width="0.321949"/>
</svg>
